<svg version="1.1" id="Layer_1" xmlns="http://www.w3.org/2000/svg" xmlns:xlink="http://www.w3.org/1999/xlink" x="0px" y="0px" viewBox="0 0 500 500" style="width: 188px;" xml:space="preserve" data-imageid="report-analysis-17" imageName="Report Analysis" class="illustrations_image">
<style type="text/css">
	.st0_report-analysis-17{fill:#F4B269;}
	.st1_report-analysis-17{fill:url(#SVGID_1_);}
	.st2_report-analysis-17{fill:url(#SVGID_00000177464699044394273910000004893765749111155361_);}
	.st3_report-analysis-17{fill:url(#SVGID_00000133518349787572291710000018193900586858709163_);}
	.st4_report-analysis-17{fill:url(#SVGID_00000108300186380252385150000006547476247879380663_);}
	.st5_report-analysis-17{fill:#FFA75F;}
	.st6_report-analysis-17{opacity:0.19;fill:#34323D;enable-background:new    ;}
	.st7_report-analysis-17{opacity:0.53;fill:#F2F2F2;enable-background:new    ;}
	.st8_report-analysis-17{fill:#68E1FD;}
	.st9_report-analysis-17{fill:#ED7E7E;}
	.st10_report-analysis-17{opacity:0.39;fill:#34323D;enable-background:new    ;}
	.st11_report-analysis-17{fill:#F2F2F2;}
	.st12_report-analysis-17{fill:#34323D;}
	.st13_report-analysis-17{fill:#E55600;}
	.st14_report-analysis-17{fill:#662D91;}
	.st15_report-analysis-17{fill:#99CE34;}
	.st16_report-analysis-17{fill:#FCBF81;}
</style>
<path id="Base_report-analysis-17" class="st0_report-analysis-17" d="M469.6,287.1L299,187.9c-2.5-1.4-5.6-1.4-8.1,0l-255,146c-3.9,2.2-5.2,7.1-3,11c0.7,1.3,1.8,2.3,3,3&#10;&#9;L199,442c8.1,4.7,18.2,4.7,26.3,0l244.2-141c3.8-2.3,5.1-7.2,2.9-11C471.7,288.8,470.8,287.8,469.6,287.1z"/>
<g id="Shadow_report-analysis-17">
	
		<linearGradient id="SVGID_1_-report-analysis-17" gradientUnits="userSpaceOnUse" x1="415.9901" y1="801.924" x2="293.5602" y2="876.2507" gradientTransform="matrix(1 0 0 1 0 -498)">
		<stop offset="2.422030e-07" style="stop-color:#E55600"/>
		<stop offset="0.1416" style="stop-color:#E55804;stop-opacity:0.8584"/>
		<stop offset="0.272" style="stop-color:#E6600F;stop-opacity:0.728"/>
		<stop offset="0.398" style="stop-color:#E76C22;stop-opacity:0.602"/>
		<stop offset="0.5213" style="stop-color:#E87D3C;stop-opacity:0.4787"/>
		<stop offset="0.6428" style="stop-color:#EA925E;stop-opacity:0.3572"/>
		<stop offset="0.7627" style="stop-color:#ECAD87;stop-opacity:0.2373"/>
		<stop offset="0.8813" style="stop-color:#EFCDB9;stop-opacity:0.1187"/>
		<stop offset="0.9963" style="stop-color:#F2F1F0;stop-opacity:3.677547e-03"/>
		<stop offset="1" style="stop-color:#F2F2F2;stop-opacity:0"/>
	</linearGradient>
	<path class="st1_report-analysis-17" d="M420.5,290.9c-7.5,5-123.9,72.3-131.3,77.4c12.6,7,16.2,8.9,17.6,9.9l132.3-75.6L420.5,290.9z"/>
	
		<linearGradient id="SVGID_00000025430761074641047200000013901077896563287438_-report-analysis-17" gradientUnits="userSpaceOnUse" x1="204.0658" y1="890.5225" x2="185.6758" y2="915.7625" gradientTransform="matrix(1 0 0 1 0 -498)">
		<stop offset="2.422030e-07" style="stop-color:#E55600"/>
		<stop offset="0.1416" style="stop-color:#E55804;stop-opacity:0.8584"/>
		<stop offset="0.272" style="stop-color:#E6600F;stop-opacity:0.728"/>
		<stop offset="0.398" style="stop-color:#E76C22;stop-opacity:0.602"/>
		<stop offset="0.5213" style="stop-color:#E87D3C;stop-opacity:0.4787"/>
		<stop offset="0.6428" style="stop-color:#EA925E;stop-opacity:0.3572"/>
		<stop offset="0.7627" style="stop-color:#ECAD87;stop-opacity:0.2373"/>
		<stop offset="0.8813" style="stop-color:#EFCDB9;stop-opacity:0.1187"/>
		<stop offset="0.9963" style="stop-color:#F2F1F0;stop-opacity:3.677547e-03"/>
		<stop offset="1" style="stop-color:#F2F2F2;stop-opacity:0"/>
	</linearGradient>
	<path style="fill:url(#SVGID_00000025430761074641047200000013901077896563287438_);" d="M187.5,390.9c-7.5,5-30.2,15.1-37.6,20.2&#10;&#9;&#9;c12.6,7,40.9,23.1,42.3,24.1l35.9-19.9L187.5,390.9z"/>
	
		<linearGradient id="SVGID_00000034804414320141174500000014794541114654922121_-report-analysis-17" gradientUnits="userSpaceOnUse" x1="271.2431" y1="768.0649" x2="215.3131" y2="844.825" gradientTransform="matrix(1 0 0 1 0 -498)">
		<stop offset="2.422030e-07" style="stop-color:#E55600"/>
		<stop offset="0.1416" style="stop-color:#E55804;stop-opacity:0.8584"/>
		<stop offset="0.272" style="stop-color:#E6600F;stop-opacity:0.728"/>
		<stop offset="0.398" style="stop-color:#E76C22;stop-opacity:0.602"/>
		<stop offset="0.5213" style="stop-color:#E87D3C;stop-opacity:0.4787"/>
		<stop offset="0.6428" style="stop-color:#EA925E;stop-opacity:0.3572"/>
		<stop offset="0.7627" style="stop-color:#ECAD87;stop-opacity:0.2373"/>
		<stop offset="0.8813" style="stop-color:#EFCDB9;stop-opacity:0.1187"/>
		<stop offset="0.9963" style="stop-color:#F2F1F0;stop-opacity:3.677547e-03"/>
		<stop offset="1" style="stop-color:#F2F2F2;stop-opacity:0"/>
	</linearGradient>
	<path style="fill:url(#SVGID_00000034804414320141174500000014794541114654922121_);" d="M232.5,260c-22.6,15-89.5,61.6-111.9,76.9&#10;&#9;&#9;c38,21,104.5,58.4,108.7,61.4l100.8-69.1L232.5,260z"/>
	
		<linearGradient id="SVGID_00000000222015685665872220000006122907014906222512_-report-analysis-17" gradientUnits="userSpaceOnUse" x1="92.6144" y1="836.1906" x2="78.1144" y2="856.0906" gradientTransform="matrix(1 0 0 1 0 -498)">
		<stop offset="2.422030e-07" style="stop-color:#E55600"/>
		<stop offset="0.1416" style="stop-color:#E55804;stop-opacity:0.8584"/>
		<stop offset="0.272" style="stop-color:#E6600F;stop-opacity:0.728"/>
		<stop offset="0.398" style="stop-color:#E76C22;stop-opacity:0.602"/>
		<stop offset="0.5213" style="stop-color:#E87D3C;stop-opacity:0.4787"/>
		<stop offset="0.6428" style="stop-color:#EA925E;stop-opacity:0.3572"/>
		<stop offset="0.7627" style="stop-color:#ECAD87;stop-opacity:0.2373"/>
		<stop offset="0.8813" style="stop-color:#EFCDB9;stop-opacity:0.1187"/>
		<stop offset="0.9963" style="stop-color:#F2F1F0;stop-opacity:3.677547e-03"/>
		<stop offset="1" style="stop-color:#F2F2F2;stop-opacity:0"/>
	</linearGradient>
	<path style="fill:url(#SVGID_00000000222015685665872220000006122907014906222512_);" d="M85.6,339.6c-8.8,6-18,11.3-27,16.9&#10;&#9;&#9;c8.6,4.9,16.6,9.5,17.3,10l28.2-15.7L85.6,339.6z"/>
</g>
<g id="Bar_Chart_report-analysis-17">
	<polygon class="st5_report-analysis-17" points="427.5,255.3 439.2,248.6 439.2,302.5 428.3,308.9 &#9;"/>
	<polygon class="st5_report-analysis-17" points="427.5,255.3 415.8,248.6 416.1,301.8 428.3,308.9 &#9;"/>
	<polygon class="st6_report-analysis-17" points="427.5,255.3 415.8,248.6 416.1,301.8 428.3,308.9 &#9;"/>
	<polygon class="st5_report-analysis-17" points="415.8,248.6 427.5,241.7 439.2,248.6 427.5,255.3 &#9;"/>
	<polygon class="st7_report-analysis-17" points="415.8,248.6 427.5,241.7 439.2,248.6 427.5,255.3 &#9;"/>
	<polygon class="st8_report-analysis-17 targetColor" points="406.4,276.9 418.1,270.1 418.1,314.7 407.1,320.9 &#9;" style="fill: rgb(104, 225, 253);"/>
	<polygon class="st8_report-analysis-17 targetColor" points="406.4,276.9 394.7,270.1 395,313.8 407.1,320.9 &#9;" style="fill: rgb(104, 225, 253);"/>
	<polygon class="st8_report-analysis-17 targetColor" points="394.7,270.1 406.4,263.3 418.1,270.1 406.4,276.9 &#9;" style="fill: rgb(104, 225, 253);"/>
	<polygon class="st8_report-analysis-17 targetColor" points="406.4,276.9 418.1,270.1 418.1,314.7 407.1,320.9 &#9;" style="fill: rgb(104, 225, 253);"/>
	<polygon class="st6_report-analysis-17" points="406.4,276.9 394.7,270.1 395,313.8 407.1,320.9 &#9;"/>
	<polygon class="st7_report-analysis-17" points="394.7,270.1 406.4,263.3 418.1,270.1 406.4,276.9 &#9;"/>
	<polygon class="st8_report-analysis-17 targetColor" points="383.6,297.7 395.3,290.9 395.9,327.5 383.6,334.7 &#9;" style="fill: rgb(104, 225, 253);"/>
	<polygon class="st8_report-analysis-17 targetColor" points="383.6,297.7 371.9,290.9 371.9,327.8 383.6,334.7 &#9;" style="fill: rgb(104, 225, 253);"/>
	<polygon class="st6_report-analysis-17" points="383.6,297.7 371.9,290.9 371.9,327.8 383.6,334.7 &#9;"/>
	<polygon class="st8_report-analysis-17 targetColor" points="371.9,290.9 383.6,284 395.3,290.9 383.6,297.7 &#9;" style="fill: rgb(104, 225, 253);"/>
	<polygon class="st7_report-analysis-17" points="371.9,290.9 383.6,284 395.3,290.9 383.6,297.7 &#9;"/>
	<polygon class="st9_report-analysis-17" points="359.6,321.7 371.3,315 371.7,341.3 359.6,348.2 &#9;"/>
	<polygon class="st9_report-analysis-17" points="359.6,321.7 347.9,315 347.9,341.4 359.6,348.2 &#9;"/>
	<polygon class="st6_report-analysis-17" points="359.6,321.7 347.9,315 347.9,341.4 359.6,348.2 &#9;"/>
	<polygon class="st9_report-analysis-17" points="347.9,315 359.6,308.1 371.3,315 359.6,321.7 &#9;"/>
	<polygon class="st7_report-analysis-17" points="347.9,315 359.6,308.1 371.3,315 359.6,321.7 &#9;"/>
</g>
<g id="Report_report-analysis-17">
	<path class="st8_report-analysis-17 targetColor" d="M378.9,100.7c0,0,24.7,6.2,17.4,45.9L342.2,116C342.2,116,364.1,96.9,378.9,100.7z" style="fill: rgb(104, 225, 253);"/>
	<path class="st10_report-analysis-17" d="M378.9,100.7c0,0,24.7,6.2,17.4,45.9L342.2,116C342.2,116,364.1,96.9,378.9,100.7z"/>
	<path class="st8_report-analysis-17 targetColor" d="M304.8,344.5c-42.5-24.8-79.8-46.1-121.4-70.1c3.1-1.5,5.1-3.2,7.9-4.5c77.2-37,48.1-91.5,47.8-147.5&#10;&#9;&#9;c-0.1-17.9,0.3-36.6,5.8-53.9c2-6.3,4.7-13,9.6-18.1c2.8-2.8,6.7-6.1,11-7c4.8-1,9.3,2.3,13.1,4.3l13.3,7l35,18.4L355.3,88l5,2.6&#10;&#9;&#9;l21,11c-4-2.1-12.6,5-14.8,7.2c-4.9,5.1-7.6,11.8-9.6,18.1c-5.5,17.3-5.9,36-5.8,53.9C351.4,236,378.1,307.1,304.8,344.5z" style="fill: rgb(104, 225, 253);"/>
	<path class="st11_report-analysis-17" d="M275.1,145.7V163l-4.5-2.9v-17C272.1,143.9,273.6,144.8,275.1,145.7z"/>
	<path class="st11_report-analysis-17" d="M266,134.6V158l-4.5-2.9v-22.7L266,134.6z"/>
	<path class="st11_report-analysis-17" d="M256.9,122.5v30.7l-4.6-2.9v-29.7C253.9,121.3,255.4,121.9,256.9,122.5z"/>
	<path class="st12_report-analysis-17" d="M310.5,165.8c-4-4.1-8.2-6.2-12.2-6.2c-0.8,0-1.5,0.1-2.2,0.2c-3.1,0.8-5.8,2.6-7.6,5.2&#10;&#9;&#9;c-1.8-2.4-3.7-4.8-5.7-7c3-3.5,7-5.9,11.4-6.9c7.7-1.6,15.7,1.4,22.6,8.4c2,2.1,3.9,4.4,5.5,6.9c-2.5,1.5-5,3.2-7.5,4.8&#10;&#9;&#9;C313.6,169.4,312.1,167.5,310.5,165.8z"/>
	<path class="st9_report-analysis-17" d="M310.4,228.2c4.2-1.3,7.7-5.2,9.9-11.1c2.6-7,3-15.8,1.1-24.7c-1.1-5.3-3-10.3-5.6-15c2.5-1.6,4.9-3.3,7.5-4.8&#10;&#9;&#9;c3.2,5.6,5.6,11.6,6.9,17.9c2.2,10.5,1.7,21-1.5,29.6s-8.6,14.2-15.4,16.4C312.4,233.8,311.5,231,310.4,228.2z"/>
	<path class="st11_report-analysis-17" d="M276.9,172.6c1.1-3.1,2.7-5.9,4.6-8.5c2.1,2.3,4,4.7,5.8,7.2c-0.8,1.4-1.5,2.9-2.1,4.4&#10;&#9;&#9;c-2.6,7-3,15.8-1.1,24.7s5.8,16.8,11,22.1c4.4,4.5,9.1,6.6,13.4,6.1c1.1,2.8,2,5.6,2.9,8.5h-0.1c-1.4,0.3-2.7,0.4-4.1,0.4&#10;&#9;&#9;c-6.4,0-12.8-3.1-18.5-8.9c-6.4-6.5-11.1-15.9-13.3-26.5S273.7,181.2,276.9,172.6z"/>
	
		<ellipse transform="matrix(0.9939 -0.1106 0.1106 0.9939 -19.7183 34.3209)" class="st11_report-analysis-17" cx="299.5" cy="194.9" rx="5.5" ry="10"/>
	<path class="st11_report-analysis-17" d="M337.4,142.7l-8.7-5.1l-20.8-12.2l-25.2-14.7l-21.8-12.8l-7.1-4.2c-1.1-0.7-2.2-1.4-3.4-2l-0.2-0.1&#10;&#9;&#9;c-0.4-0.2-0.8,0-1,0.3s-0.1,0.8,0.2,1l8.7,5.1l20.9,12.2l25.2,14.8l21.8,12.7l7.2,4.2c1.1,0.7,2.2,1.4,3.4,2l0.2,0.1&#10;&#9;&#9;c0.4,0.2,0.8,0,1-0.4C337.8,143.3,337.7,142.9,337.4,142.7L337.4,142.7z"/>
	<path class="st11_report-analysis-17" d="M341.1,134.2l-8.7-5.1L311.6,117l-25.2-14.8l-21.8-12.7l-7.2-4.2c-1.1-0.7-2.2-1.4-3.4-2l-0.2-0.1&#10;&#9;&#9;c-0.4-0.2-0.8,0-1,0.4c-0.1,0.3,0,0.7,0.2,0.9l8.7,5.1l20.8,12.2l25.2,14.7l21.8,12.7l7.2,4.2c1.1,0.7,2.2,1.4,3.4,2l0.2,0.1&#10;&#9;&#9;c0.4,0.2,0.8,0,1-0.3C341.5,134.9,341.4,134.5,341.1,134.2L341.1,134.2z"/>
	<path class="st11_report-analysis-17" d="M337.4,152l-8.7-5.1l-20.8-12.2l-25.2-14.8l-21.8-12.7l-7.1-4.2c-1.1-0.7-2.2-1.4-3.4-2&#10;&#9;&#9;c-0.1,0-0.1-0.1-0.2-0.1c-0.4-0.2-0.8,0-1,0.3s-0.1,0.8,0.2,1l8.7,5.1l20.9,12.2l25.2,14.7L326,147l7.2,4.2c1.1,0.7,2.2,1.4,3.4,2&#10;&#9;&#9;l0.2,0.1c0.4,0.2,0.8,0,1-0.4C337.8,152.6,337.7,152.2,337.4,152L337.4,152z"/>
	<path class="st11_report-analysis-17" d="M337.4,269.4l-8.7-5.1l-20.8-12.2l-25.2-14.8l-21.8-12.7l-7.1-4.2c-1.1-0.7-2.2-1.4-3.4-2&#10;&#9;&#9;c-0.1,0-0.1-0.1-0.2-0.1c-0.4-0.2-0.8,0-1,0.3s-0.1,0.8,0.2,1l8.7,5.1l20.9,12.2l25.2,14.7l21.8,12.8l7.2,4.2&#10;&#9;&#9;c1.1,0.7,2.2,1.4,3.4,2l0.2,0.1c0.4,0.2,0.8,0,1-0.4C337.8,270,337.7,269.6,337.4,269.4z"/>
	<path class="st11_report-analysis-17" d="M336.8,278.8l-8.7-5.1l-20.8-12.2L282,246.8L260.2,234l-7.2-4.2c-1.1-0.7-2.2-1.4-3.4-2l-0.2-0.1&#10;&#9;&#9;c-0.4-0.2-0.8,0-1,0.4c-0.1,0.3,0,0.7,0.2,0.9l8.7,5.1l20.8,12.2l25.2,14.8l21.8,12.8l7.2,4.2c1.1,0.7,2.2,1.4,3.4,2l0.2,0.1&#10;&#9;&#9;c0.4,0.2,0.8,0,1-0.3C337.2,279.5,337.1,279.1,336.8,278.8L336.8,278.8z"/>
	<path class="st11_report-analysis-17" d="M335.1,287.9l-8.7-5.1l-20.9-12.2l-25.2-14.8l-21.8-12.7l-7.2-4.2c-1.1-0.7-2.2-1.4-3.4-2l-0.2-0.1&#10;&#9;&#9;c-0.4-0.2-0.8-0.1-1,0.3c-0.2,0.4-0.1,0.8,0.3,1l0,0l8.7,5.1l20.8,12.2l25.2,14.7l21.8,12.8l7.2,4.2c1.1,0.6,2.2,1.4,3.4,2l0.2,0.1&#10;&#9;&#9;c0.4,0.2,0.8,0.1,1-0.3S335.5,288.2,335.1,287.9L335.1,287.9z"/>
</g>
<g id="Magnifying_Glass_report-analysis-17">
	<path class="st13_report-analysis-17" d="M264.8,255.7l13.6,48.9c0,0-1.2,13.2-18.4,7.7l-11.7-51.6C248.2,260.8,250.8,249.3,264.8,255.7z"/>
	<path class="st12_report-analysis-17" d="M244.4,232.7l8.6,29c0,0,7.3,3.8,9.6-3.4l-7-28.2L244.4,232.7z"/>
	<path class="st12_report-analysis-17" d="M231.1,226c-8.2-6.4-14.9-16.3-18.9-27.9s-4.7-23.5-2.2-33.6c2.7-10.9,8.9-18.5,17.5-21.4l0,0&#10;&#9;&#9;c17.1-5.9,37.3,9.1,45.8,34.1s1.8,49.1-15.3,55c-4.4,1.5-9.1,1.7-13.6,0.5C239.5,231.5,235,229.2,231.1,226z M230.7,152.4&#10;&#9;&#9;c-5.3,1.8-9.2,7-11.1,14.5c-2.1,8.3-1.4,18.2,2,28s8.9,18.1,15.6,23.3c6.1,4.8,12.4,6.4,17.7,4.6c11.5-4,15.7-23.4,9.2-42.5&#10;&#9;&#9;c-5.1-14.8-15.4-25.9-25.2-28.2C236.2,151.4,233.3,151.5,230.7,152.4L230.7,152.4z"/>
	<path class="st12_report-analysis-17" d="M241.3,156.6c-2.6-1.9-8.3,1.2-10.2,2.9c-15.2,14.2-7.9,40.8,5.3,54.4c4.9,5.1,16.6,12,20.8,9.1&#10;&#9;&#9;c0,0-19,12.9-32.6-1.3s-16.9-41.6-16.9-41.6l0.8-14.5l5-9.7l5-5.4l12.5-1.4L241.3,156.6z"/>
	<path class="st14_report-analysis-17" d="M226.4,227.3c-8.2-6.4-14.9-16.4-18.9-27.9s-4.7-23.5-2.2-33.6c2.7-10.9,8.9-18.5,17.5-21.4l0,0&#10;&#9;&#9;c17.1-5.9,37.2,9.1,45.8,34.1s1.8,49.1-15.3,55c-4.4,1.5-9.1,1.7-13.6,0.5C234.9,232.8,230.3,230.5,226.4,227.3z M226.1,153.7&#10;&#9;&#9;c-5.3,1.8-9.2,7-11.1,14.5c-2.1,8.3-1.4,18.2,2,28s8.9,18.1,15.6,23.3c6.1,4.8,12.4,6.4,17.7,4.6c11.5-4,15.7-23.4,9.2-42.5&#10;&#9;&#9;c-5.1-14.8-15.4-25.9-25.2-28.2C231.5,152.8,228.7,152.9,226.1,153.7z"/>
</g>
<g id="Plant_report-analysis-17">
	<path class="st8_report-analysis-17 targetColor" d="M79.2,320.7c0,0-3.3,26.2,11.6,31.3s22.8-8.1,23-31.2" style="fill: rgb(104, 225, 253);"/>
	<ellipse class="st12_report-analysis-17" cx="96.4" cy="320.7" rx="17.3" ry="9.3"/>
	<path class="st15_report-analysis-17" d="M96.4,320.7c0,0,0-36.2-18.5-51c0,0-9.9,5.9-7.4,14.9s13.1,2.4,14.9,7.1s-3.6,6.1,0.1,11&#10;&#9;&#9;S96.4,311.4,96.4,320.7z"/>
	<path class="st15_report-analysis-17" d="M100.2,317.7c0,0-1.5-42,7.8-54.5s15.5,4.7,11.3,12.3s-11.5,5.7-8.9,12.3s7.2,10,2,12.8&#10;&#9;&#9;S99.8,312.3,100.2,317.7z"/>
</g>
<g id="Character_report-analysis-17">
	<path class="st16_report-analysis-17" d="M218.5,230.7c0.3-0.7,0.6-1.4,1-2c0,0,0,0.1,0.1,0.1c0,0.1,0.2,0.2,0.3,0.2s0.1-0.1,0.2-0.1l0.7-1.1&#10;&#9;&#9;c0,0.1,0,0.3,0,0.4c0.1,0.6,0.7,1,1.2,0.9c0.6,0,1.1-0.6,1-1.2c0-0.1,0-0.1,0-0.2c0.1-0.1,0.2-0.3,0.3-0.4c0,0.1,0,0.2,0,0.3&#10;&#9;&#9;c0.2,0.5,0.8,0.8,1.3,0.6c0.1,0,0.2-0.1,0.3-0.2c0.1-0.1,0.2-0.2,0.4-0.4c0.2,0.1,0.4,0.1,0.6,0c1-0.3,1.9-0.7,2.8-1.1&#10;&#9;&#9;c-0.2-0.1-0.3-0.3-0.2-0.6c0,0,0-0.1,0.1-0.1c1-1,2.3-1.5,3.4-2.4l0.1-0.1l0.1-0.1c0.3-0.9,0.2-1.9-0.2-2.8&#10;&#9;&#9;c0.6-0.7,0.8-1.6,0.6-2.6c-0.1,0-0.2,0-0.3-0.1c-0.2-0.2-0.3-0.3-0.4-0.5c-0.2-0.3-0.4-0.6-0.5-0.9c-0.1-0.2,0-0.3,0.1-0.4&#10;&#9;&#9;c-0.4-0.6-1-1.2-1.4-1.7c1.1-1.9,1.7-4.1,1.5-6.3c-0.1-0.5-0.6-0.9-1.1-0.9c-0.3,0-0.5,0.2-0.7,0.4c-0.4,0.7-0.8,1.4-1.2,2.2&#10;&#9;&#9;c-0.1,0.1-0.2,0.2-0.3,0.3c-1.9,3.9-4,7.7-6.3,11.3c-0.4,0.6-5.2,7.2-4.6,7.4C217.6,229,213.7,238,218.5,230.7z"/>
	<path class="st16_report-analysis-17" d="M219,228.6c1-0.8,1.9-1.8,2.6-2.9c0.5-1,1.7-1.3,2.7-0.8h0.1c0.1-0.5,0.1-1.1,0.1-1.6c0-2.7,4.3-2.8,4.2,0&#10;&#9;&#9;c0.1,2.1-0.5,4.2-1.6,6c-1.3,1.6-2.8,3-4.6,4.1c-1,0.6-2.4,0.2-3-0.8c-0.1-0.3-0.2-0.5-0.3-0.8c-0.1,0-0.1-0.1-0.2-0.1&#10;&#9;&#9;C218.2,230.7,218.2,229.4,219,228.6z"/>
	<path class="st12_report-analysis-17" d="M225.8,230.2c1.8-1.2,3.1-2.9,3.6-5c0.1,0.1,0.2,0.2,0.3,0.1l0,0l1.7-1.1c0.4-0.2,0.7-0.5,0.9-0.8&#10;&#9;&#9;c0.6-0.8,0.1-1.7-0.2-2.5l-0.1-0.1c0.1-0.1,0.2-0.3,0.2-0.4c0.4-0.6,0.6-1.3,0.6-2.1c-0.1-0.7-0.8-1.2-1.1-1.9&#10;&#9;&#9;c0.1-0.8-0.3-1.5-1-1.8c-0.9-0.4-1.4,0.3-1.9,0.9c-1,1.4-2,2.9-2.9,4.4c-0.2,0.3,0.3,0.6,0.5,0.3c0.5-0.8,1-1.6,1.6-2.4&#10;&#9;&#9;c0.4-0.9,1-1.7,1.7-2.4c1.9-1.1,1.5,1.5,1.2,2.2c-0.2,0.4-0.4,0.8-0.6,1.1l-1.4,2.5c0,0,0,0,0,0.1s0,0.1,0,0.2&#10;&#9;&#9;c0.9,3.2-0.5,6.5-3.2,8.3C225.2,229.9,225.5,230.4,225.8,230.2z M229.6,221.6c-0.1-0.1-0.2-0.1-0.3,0c0-0.1,0-0.1,0-0.2&#10;&#9;&#9;c0.9-1.3,1.7-2.8,2.3-4.3c0.1,0.2,0.3,0.3,0.4,0.5c0.4,0.5,0.4,1.2,0.1,1.8C231.8,220.2,230.8,222.2,229.6,221.6L229.6,221.6z&#10;&#9;&#9; M229.5,224.8c0.2-0.9,0.2-1.8,0-2.7c0.9,0.4,1.7-0.1,2.2-0.9c0.2,0.3,0.3,0.7,0.4,1c0.1,0.5-0.1,1-0.6,1.2&#10;&#9;&#9;C230.9,223.9,230.1,224.3,229.5,224.8z"/>
	<path class="st13_report-analysis-17" d="M195.6,238.7c0,0,12.3,0.6,15.6-2.4s7.9-12.3,7.9-12.3s8.5,5.5,8.9,8.6s-8.9,18.4-13,19.4"/>
	<path class="st13_report-analysis-17" d="M176.9,390.9c0,0,10.4-4.6,12.9-4.8s6.7,0.7,3.1,5.3c0,0-11,7.2-12.4,7.4s-5-0.9-5-0.5s-0.4,3.1-0.4,3.1&#10;&#9;&#9;s-9.2,3.5-9.6-2.6c-0.1-0.8,1.3-12.2,1.3-12.2"/>
	<path class="st12_report-analysis-17" d="M164.9,364c1.8-11.8,5.1-23.2,6.5-35.2c0.9-7.5,1.5-15.1,2.4-22.6s3.7-14.8,5.5-22.2c0.1-0.4-0.1-0.7-0.4-0.9&#10;&#9;&#9;l0.2-0.8c0.9-0.9,1.9-1.7,2.8-2.5l12.8,8.6c0,0-0.1,7.9-0.5,19.2c-1.5,6.6-2.6,12.6-4.3,18.9c0.4,0.4,0.5,1,0.4,1.5&#10;&#9;&#9;c-4.2,19.8-7.2,39.8-9.1,60c-0.1,0.7-0.5,1.3-1.1,1.5l-0.4,3.1c-11.1,4.3-13.6-3.2-13.6-3.2s-0.5-6.4-1.1-15.3&#10;&#9;&#9;C164.9,370.8,164.8,367.4,164.9,364z"/>
	<path class="st16_report-analysis-17" d="M259.3,243.7c-0.7,0.4-1.4,0.8-2.2,1.4c1.1-1.4,2.1-2.9,2.9-4.5c0.8-1.4-1.2-2.5-2.2-1.5&#10;&#9;&#9;c-2.8,3.1-5.9,6-9.2,8.6c-0.2,0.1-0.3,0.3-0.4,0.4h-2c-0.6,0-1.2,0-1.7,0L244,248c-0.4-0.1-0.8,0-1.1,0.4c-0.3,0.1-0.5,0.2-0.8,0.4&#10;&#9;&#9;c-0.1,0-0.1,0.1-0.2,0.2c-0.6,0.1-1.3,0.1-2,0.2c-0.8,0.1-1.3,0.8-1.2,1.6c0,0.1,0.1,0.3,0.1,0.4l-0.3-0.2&#10;&#9;&#9;c-1.5-0.9-2.7,1.5-1.2,2.4c3.1,1.9,6.7,2.9,10.4,2.9c0.3,0.3,0.8,0.3,1.2,0.1l0.6-0.2c3.1-0.2,6.2-0.8,9.1-1.9&#10;&#9;&#9;c0.8-0.3,1.6-0.5,2.4-0.6l0,0C260.6,250.5,260,247.1,259.3,243.7z"/>
	<path class="st13_report-analysis-17" d="M199.7,408.1l6.2,2.2c0.4,1.1,1.3,2,2.5,2.3c0.2,0.3,0.5,0.4,0.9,0.5c2.6,0.4,4.9-0.4,7.4-1.2&#10;&#9;&#9;c3-0.9,14.6-5.4,11.3,3c-2.1,1.5-4.5,2.8-6.6,4.1c-1.2,0.7-2.4,1.5-3.7,2.2c-0.7,0.5-1.4,0.8-2.2,1c-1.7,0.3-5.7-1-5.8-0.6&#10;&#9;&#9;s-0.5,3.6-0.5,3.6s-10.6,4-11-3C198.1,421.2,199.7,408.1,199.7,408.1z"/>
	<path class="st12_report-analysis-17" d="M191,344.6c-1.3-20.9-2-41.8-6.4-62.3c-0.2-5.3-3.6-1.9-3.4-4c1.8-17.2,26.8,3.2,26.8,3.2&#10;&#9;&#9;c1,0.8,1.1,6.1,1.3,7.3c1.1,6.6,2.1,13.2,2.9,19.8c4.1,33.5,2.6,66.8,0.9,100.4c-5.3,5.4-8.8,7-17.3,3.5c-1.7-22-3.3-44-4.7-66&#10;&#9;&#9;C191,346,191,345.3,191,344.6z"/>
	<path class="st13_report-analysis-17" d="M204.3,241c-0.2-1.1-3-1.8-3.9-2.2c-1.9-1.1-0.8-2.9-2.7-4c-2.7-1.6-5.6-3-8.6-4.2H189&#10;&#9;&#9;c-4.7-0.1-12.7-0.3-13.2,6.1c-0.7,9.8,0.1,19.5,0.9,29.2c0.3,3.9,0.6,7.8,1,11.6c0.1,1.4,0.3,12.6,1.1,13&#10;&#9;&#9;c9.4,3.9,21.4,2.5,30.6-1.1C209.6,281.4,207.7,256.9,204.3,241z"/>
	<path class="st12_report-analysis-17" d="M195.9,250.8c0.6,6.7,5.2,12.3,11.7,14c0,0.6,0.2,4.6,0.3,5.2c-7.5-1.8-13-11.2-13.8-19.2&#10;&#9;&#9;C193.9,249.6,195.8,249.6,195.9,250.8z"/>
	<path class="st16_report-analysis-17" d="M191.3,210.8c0.6,0.2,5.9,12.2,3.8,19.6s-14.5-0.2-17.7-5.8S179.5,207.8,191.3,210.8z"/>
	<path class="st12_report-analysis-17" d="M191.1,212.5c0,0,0,4-3.5,5.3s-6.4,2.2-6.2,3.8s6.3-0.2,6.3,3.5c0,2.5-0.3,5-1,7.4&#10;&#9;&#9;c-0.4,1.8-10.9-3.7-14.3-13.2s5.2-12,5.6-12s1.2-2.6,5.4-3.6s5.4,0.7,5.4,0.7s2.8-2,6.2,0.7c3.9,3.1,2.9,8.8-1.5,11.1L191.1,212.5z&#10;&#9;&#9;"/>
	<path class="st13_report-analysis-17" d="M195.9,233.6c0,0,21.6,12.4,29.3,12.4c5.6,0,16.7-1.8,22.4-2.8c5.3,4.5,5.7,12.5,2.4,18.5&#10;&#9;&#9;c-9.4,1.5-37.3,5.5-46.1,1.2c-10.6-5.3-22.2-12.3-22.2-12.3S171.2,240.3,195.9,233.6z"/>
	<path class="st16_report-analysis-17" d="M257.1,245.1c0,0,3.2-2.6,4.1-2.1s2.8,5.1,2.5,7.7s-1.6,4.9-8.3,4.9"/>
</g>
</svg>